<?xml version="1.0" encoding="UTF-8"?>
<svg id="Layer_2" data-name="Layer 2" xmlns="http://www.w3.org/2000/svg" viewBox="0 0 265.63 265.58">
  <defs>
    <style>
      .cls-1 {
        fill: #519753;
      }
    </style>
  </defs>
  <g id="Layer_1-2" data-name="Layer 1">
    <g>
      <path class="cls-1" d="M220.6,36.07c5.26,14.35,8.16,29.55,9.75,44.75,13.09,11.62,25.94,23.72,35.28,38.67-6.9,13.93-16,26.79-26.66,38.07,1.92,14.97,3.71,29.97,2.69,45.11-12.61,5.03-25.26,10.69-38.83,12.66-15.24,26.35-42.52,40.43-70.33,50.25-26.42-10.4-55.58-23.39-68.69-50.23-13.82-2.37-27.06-7.04-39.82-12.68-1.11-15.15.91-30.11,2.66-45.1-9.74-12.39-20.27-24.48-26.66-39.09,10.19-13.52,20.88-26.76,34.55-36.93,2.22-7.95,5.36-40.37,10.29-45.21,3.78-3.71,39.05-3.05,46.28-3.72,12.33-12.83,26.41-24.04,42.04-32.63,15.02,9.07,29.88,19.29,41.33,32.67,15.35.51,31.19-.41,46.11,3.39ZM180.84,77.83c-.76-19.5-9.93-37.24-24.53-49.97-3.41-2.97-18.16-14.23-21.54-15.54-.84-.33-1.24-.5-2.21-.36-4.47.66-27.44,19.53-31.15,23.96-9.36,11.18-16.07,27.34-16.58,41.92-30.99-1.4-56.88,16.54-72.88,41.72-.31,2.1,11.18,18.38,13.46,21.19,9.87,12.17,22.83,22.32,38.3,26.2-.61,16.41,1.09,30.06,8.95,44.56,3.47,6.41,8.58,16.68,16.62,16.35,14.11-.57,31.59-9.28,43.89-15.86,8.99,6.15,38.96,19.39,48.64,15.31,1.91-.81,7.4-8.91,8.82-11.17,9.46-15,12.31-30.72,11.61-48.34,20.61-6.63,35.02-19.61,46.4-37.65,2.01-3.19,5.91-7.78,4.68-11.26-1.73-4.88-16.43-19.34-21.02-23.03-15.47-12.44-31.63-17.23-51.47-18.03ZM84.83,42.85c-10.87-1.43-22.11.91-33.05,1.47l-5.94,31.51c9.89-3.44,19.47-6.37,30.09-6.48,1.37-9.38,5-17.96,8.91-26.51ZM213.6,45.06c-1.59-1.64-31.33-3.67-32.78-2.21l9.23,25.79c10.28,1.07,20.05,3.63,29.76,7.2l-6.22-30.77ZM34.83,164.84c-.31,10.32-3.13,20.68-1.52,31.01.8,1.33,23.43,9.2,25,8.98,2.09-.29.85-1.84.68-2.63-1.97-9.2-5.11-17.48-4.65-27.38l-19.5-9.99ZM230.82,164.83l-19.51,10.04c-.13,10.25-1.85,20.33-5.48,29.96l26.88-8.11-1.89-31.89ZM169.83,235.85c-13.42-1.17-25.33-7.78-37.43-13.04-10.38,6.96-22.25,8.93-33.98,12.12-1.16.31-2.4.36-2.59,1.9,8.94,4.07,28.06,18.36,37.46,18.06,9.15-.3,28.88-13.3,36.53-19.04Z"/>
      <path class="cls-1" d="M126.82,106.83c-6.86-5.2-17.25,2.76-20.99,8.99,13.81,8.46,48.94-6.16,59.02,6.49,4.29,5.38,3.11,18.55-4.48,19.57-4.45.6-10.27-.34-15.04-.04-13.26.84-26.69,2.53-39.97,3.03-4.37.17-9.52.48-13.53-1.05-2.39,16.4-12.49,25.72-28.01,14.99.99-3.18,3.88-1.08,6.04-1.44,6.64-1.12,12.51-4.09,15.8-10.2,4.44-8.26-3.09-9.05-3.61-15.01-.19-2.17,2.83-4.87,2.79-7.33l5.96,7.52c1.32,1.31,2.72,2.12,4.59,2.41,14.11,2.23,36.11-1.21,50.9-1.98,4.81-.25,9.72.27,14.54.04-.77-5.16-7.36-6.49-11.62-6.86-9.15-.8-44.19,6.87-47.21-3.86-1.26-4.46,4.09-14.58,7.18-17.93,2.9-3.14,14.85-12.12,18.67-7.86,2.68,3.38-.14,7.09-1.03,10.52Z"/>
      <path class="cls-1" d="M174.84,146.83c.71-15.32,13.12-8.32,21.95-14.57.83-3.75-11.42-15.04-15.81-15.58-.65-1.87.43-9.16,3.22-8.76.57.08,8.23,5.91,9.17,6.86,6.16,6.19,10.95,17.13,4.93,25.02-5.33,6.98-17.18,1.23-23.47,7.02Z"/>
      <path class="cls-1" d="M98.84,98.83c-2.15-2.17,10-6.84,9.97-8.5-4.82-4.6-11.39-4.43-16.97-1.5,3.22-11.52,16.65-6.27,23.97-1.51-3.26,6.65-11.14,7.97-16.97,11.51Z"/>
      <polygon class="cls-1" points="204.82 147.84 204.16 150.85 175.84 157.83 176.49 154.82 204.82 147.84"/>
      <path class="cls-1" d="M180.31,92.09c5.75,2.19,9.58,5.29,2.87,9.64l-6.22-4.52,3.35-5.12Z"/>
      <path class="cls-1" d="M220.6,36.07c5.26,14.35,8.16,29.55,9.75,44.75,13.09,11.62,25.94,23.72,35.28,38.67-6.9,13.93-16,26.79-26.66,38.07,1.92,14.97,3.71,29.97,2.69,45.11-12.61,5.03-25.26,10.69-38.83,12.66-15.24,26.35-42.52,40.43-70.33,50.25-26.42-10.4-55.58-23.39-68.69-50.23-13.82-2.37-27.06-7.04-39.82-12.68-1.11-15.15.91-30.11,2.66-45.1-9.74-12.39-20.27-24.48-26.66-39.09,10.19-13.52,20.88-26.76,34.55-36.93,2.22-7.95,5.36-40.37,10.29-45.21,3.78-3.71,39.05-3.05,46.28-3.72,12.33-12.83,26.41-24.04,42.04-32.63,15.02,9.07,29.88,19.29,41.33,32.67,15.35.51,31.19-.41,46.11,3.39ZM180.84,77.83c-.76-19.5-9.93-37.24-24.53-49.97-3.41-2.97-18.16-14.23-21.54-15.54-.84-.33-1.24-.5-2.21-.36-4.47.66-27.44,19.53-31.15,23.96-9.36,11.18-16.07,27.34-16.58,41.92-30.99-1.4-56.88,16.54-72.88,41.72-.31,2.1,11.18,18.38,13.46,21.19,9.87,12.17,22.83,22.32,38.3,26.2-.61,16.41,1.09,30.06,8.95,44.56,3.47,6.41,8.58,16.68,16.62,16.35,14.11-.57,31.59-9.28,43.89-15.86,8.99,6.15,38.96,19.39,48.64,15.31,1.91-.81,7.4-8.91,8.82-11.17,9.46-15,12.31-30.72,11.61-48.34,20.61-6.63,35.02-19.61,46.4-37.65,2.01-3.19,5.91-7.78,4.68-11.26-1.73-4.88-16.43-19.34-21.02-23.03-15.47-12.44-31.63-17.23-51.47-18.03ZM84.83,42.85c-10.87-1.43-22.11.91-33.05,1.47l-5.94,31.51c9.89-3.44,19.47-6.37,30.09-6.48,1.37-9.38,5-17.96,8.91-26.51ZM213.6,45.06c-1.59-1.64-31.33-3.67-32.78-2.21l9.23,25.79c10.28,1.07,20.05,3.63,29.76,7.2l-6.22-30.77ZM34.83,164.84c-.31,10.32-3.13,20.68-1.52,31.01.8,1.33,23.43,9.2,25,8.98,2.09-.29.85-1.84.68-2.63-1.97-9.2-5.11-17.48-4.65-27.38l-19.5-9.99ZM230.82,164.83l-19.51,10.04c-.13,10.25-1.85,20.33-5.48,29.96l26.88-8.11-1.89-31.89ZM169.83,235.85c-13.42-1.17-25.33-7.78-37.43-13.04-10.38,6.96-22.25,8.93-33.98,12.12-1.16.31-2.4.36-2.59,1.9,8.94,4.07,28.06,18.36,37.46,18.06,9.15-.3,28.88-13.3,36.53-19.04Z"/>
      <path class="cls-1" d="M126.82,106.83c-6.86-5.2-17.25,2.76-20.99,8.99,13.81,8.46,48.94-6.16,59.02,6.49,4.29,5.38,3.11,18.55-4.48,19.57-4.45.6-10.27-.34-15.04-.04-13.26.84-26.69,2.53-39.97,3.03-4.37.17-9.52.48-13.53-1.05-2.39,16.4-12.49,25.72-28.01,14.99.99-3.18,3.88-1.08,6.04-1.44,6.64-1.12,12.51-4.09,15.8-10.2,4.44-8.26-3.09-9.05-3.61-15.01-.19-2.17,2.83-4.87,2.79-7.33l5.96,7.52c1.32,1.31,2.72,2.12,4.59,2.41,14.11,2.23,36.11-1.21,50.9-1.98,4.81-.25,9.72.27,14.54.04-.77-5.16-7.36-6.49-11.62-6.86-9.15-.8-44.19,6.87-47.21-3.86-1.26-4.46,4.09-14.58,7.18-17.93,2.9-3.14,14.85-12.12,18.67-7.86,2.68,3.38-.14,7.09-1.03,10.52Z"/>
      <path class="cls-1" d="M174.84,146.83c.71-15.32,13.12-8.32,21.95-14.57.83-3.75-11.42-15.04-15.81-15.58-.65-1.87.43-9.16,3.22-8.76.57.08,8.23,5.91,9.17,6.86,6.16,6.19,10.95,17.13,4.93,25.02-5.33,6.98-17.18,1.23-23.47,7.02Z"/>
      <path class="cls-1" d="M98.84,98.83c-2.15-2.17,10-6.84,9.97-8.5-4.82-4.6-11.39-4.43-16.97-1.5,3.22-11.52,16.65-6.27,23.97-1.51-3.26,6.65-11.14,7.97-16.97,11.51Z"/>
      <polygon class="cls-1" points="204.82 147.84 204.16 150.85 175.84 157.83 176.49 154.82 204.82 147.84"/>
      <path class="cls-1" d="M180.31,92.09c5.75,2.19,9.58,5.29,2.87,9.64l-6.22-4.52,3.35-5.12Z"/>
    </g>
  </g>
</svg>