<?xml version="1.0" encoding="UTF-8"?>
<svg id="Layer_2" data-name="Layer 2" xmlns="http://www.w3.org/2000/svg" viewBox="0 0 606.06 205.99">
  <defs>
    <style>
      .cls-1 {
        fill: #519753;
      }
    </style>
  </defs>
  <g id="Layer_1-2" data-name="Layer 1">
    <g>
      <g>
        <path class="cls-1" d="M355.93,61.49v1.99c-3.64-.91-9,2.95-9,6.51v20.5h32v-20.5c0-3.32-4.9-6.19-8-6.52v-1.98s29,0,29,0c.53,2.41-.41,1.62-1.31,2.23-2.23,1.52-5.03,1.88-5.67,5.29,1.14,16.04-1.6,34.27-.09,50.04.43,4.52,2.1,6.7,7.07,6.44v2.99h-29.01c.26-4.26,8-2.96,8-8.5v-23.5c-.73-.27-1.2,1-1.5,1h-30.5v22.5c0,.24,2.07,4.08,2.25,4.25,1.87,1.73,7.42.8,6.75,4.25h-30c1-5.24,6-1.18,6.91-7.56,1.46-10.2,1.19-39.37.16-50-.54-5.55-2.03-4.67-5.75-7.21-.9-.61-1.83.18-1.31-2.23h30Z"/>
        <path class="cls-1" d="M241.93,128.49v-3c5.88.72,7.56-1.97,8.05-7.46.9-10.09,1.36-38.57-.11-47.99-.76-4.85-3.17-4.76-6.51-6.47-1.05-.54-1.89.54-1.43-2.09h44.5c4.8,0,18.54,7.08,21.92,11.08,17.44,20.61,1.41,55.92-25.92,55.92h-40.5ZM263.93,123.49c24.8,3.94,37.76-8.68,36.04-33.54-1.43-20.74-17.92-25.4-36.04-24.46v58Z"/>
        <path class="cls-1" d="M577.43,61.49c20.96,2.97,21.96,29.48,2.51,35.49,5.96,7.22,10.81,19.26,17.6,25.4,2.7,2.44,4.54,2.44,7.1,3.88,1.12.63,1.71-.11,1.29,2.22h-19.5c-1.66-1.68-3.41-3.25-4.92-5.08-4.79-5.8-10.17-18.49-15.04-22.96-2.39-2.2-5.35-3.38-7.38-.36,2.36,7.57-3.94,26.73,7.84,25.41v2.99h-28.01v-2.99c5.34.5,6.62-2.72,7.05-7.46,1.39-15.53-1.06-33.22-.14-48.99.49-5.39-6.91-3.37-6.91-7.56,11.92,1.21,26.98-1.63,38.5,0ZM576.62,68.8c-3.83-4.21-12.55-3.27-17.7-3.3,1.23,9.58,1.64,19.43,0,28.99,8.27.35,16.9.65,19.94-8.55,1.62-4.9,1.35-13.18-2.25-17.14Z"/>
        <path class="cls-1" d="M486.93,61.49v1.99c-2.55-.15-8,3.05-8,5.51v25.5l6.53-4.97c3.08-4.11,21.38-19.1,20.38-23.43-1.01-2.62-5.68-1.33-4.92-4.6h24c.45,2.63-.37,1.55-1.43,2.09-2.14,1.09-4.63,1.64-6.89,3.09-3.28,2.1-21.73,18.99-21.72,21.32,7.98,9.62,14.38,21.1,22.52,30.51,2.6,3,6.35,7.62,10.52,6.99v2.99h-20.01l-24.64-30.92c-5.84-.98-4.87,18.67-4.3,22.36.69,4.43,3.78,5.78,7.94,5.57v2.99h-29.01c-.52-3.72,4.92-2.79,6.09-4.65,1.08-1.71,1.8-8.4,1.95-10.8.7-10.68.99-29.53-.15-39.94-.16-1.46-1.16-5.89-1.82-6.94-1.36-2.16-6.8-1.31-6.08-4.67h29Z"/>
        <path class="cls-1" d="M444.93,61.49c.46,2.63-.38,1.55-1.43,2.09-3.34,1.71-5.76,1.61-6.51,6.47-1.43,9.2-1,37.14-.11,46.99.19,2.09.71,5.11,2,6.73,1.83,2.28,6.6,1.39,6.05,4.72h-30c-.33-3.51,4.17-1.96,6.49-5.01,1.37-1.8,1.37-3.34,1.56-5.44.89-10.06,1.37-38.63-.11-47.98-.78-4.95-3.5-4.34-6.65-6.32-1.02-.64-1.76.09-1.29-2.25h30Z"/>
        <path class="cls-1" d="M307.93,158.99c-.67-2.18-5.97-1.39-4.99-4.5l12.99,1.01c-.08,1.66-4.99,1.52-4.99,3.49v33.5c-1.56.27-2.31-.15-3.55-.95-6.42-4.15-16.3-19.18-22.47-25.53-.96-.98-1.3-1.88-2.98-1.52v19.5c0,.32,1.59,4.67,1.92,5.09,1.57,1.95,4.85.28,4.08,3.41h-12.99c-.8-3.19,2.31-1.36,3.5-2.96,2.92-3.95.37-12.01.41-16.55.03-3.25,1.95-12.13.19-14.8-1.32-2.01-4.77-.55-5.11-2.67l11.99.49c6.44,7.82,12.99,15.65,19.72,23.21.6.67-.07,1.91,2.29,1.28v-21.5Z"/>
        <path class="cls-1" d="M596.43,155.49c2.12.66,2.13,6.09,0,7-2.87-7.29-9.67-3.67-15.49-6l-1.01,15,10.33.04c1.84-.41.44-5.12,3.67-4.03v11.99c-3.51.36-.88-3.22-4.94-4.55-2.57-.84-5.41-.35-8.06-.44v15c3.34,1.5,11.14,1.23,13.76-1.25,1.21-1.14,1.02-5.33,4.24-4.75l-2.5,8.99h-27.5c-.73-3.08,2.06-1.51,3.56-2.92.86-1.27.9-27.27.51-30.62-.36-3.06-3.43-.95-4.07-3.46h27.5Z"/>
        <path class="cls-1" d="M491.93,155.49c-1.53,2.37-4.18.48-4.97,4.53-.66,3.41-.46,17.17.06,20.88,1.65,11.71,16.75,11.47,19.66,1.85,1.23-4.08,2.34-22.28.01-25.01-.98-1.15-3.86-.4-3.76-2.23h11.99c.04,2.03-3.06.26-3.88,2.61-2.28,6.56,2.02,19.59-2.34,28.66-4.08,8.49-19.93,8.74-25.79,2.23-7.73-8.6,2.36-26.32-6.99-33.51h16Z"/>
        <path class="cls-1" d="M347.92,155.5v7.99c-2.51-.85-2.58-4.75-4.41-6.08-3.07-2.22-9.27-1.06-10.39,2.8-3.05,10.55,11.97,8.51,16.81,15.77,10.98,16.46-26.55,26.55-24,6.51,3.34.06,3.31,4.6,6.02,6.47,4.72,3.27,14.06,2.21,13.87-5.01-.22-8.15-18.35-7.29-18.83-19.05-.44-10.91,13.17-11.35,20.93-9.41Z"/>
        <path class="cls-1" d="M538.93,157.49c-2.89,0-6.72-.3-9.31,1.19-2.99,1.72-1.33,5.21-4.69,4.81l1-7.99,31.37-.07c1.07.3.94,2.77,1.14,3.75.05.26.99,5.24-1.02,4.31-1.91-5.97-5.74-6.51-11.51-6.01v31.5l4,1.51v1.99h-16v-1.99c1.91.6,5-1.91,5-3.51v-29.5Z"/>
        <path class="cls-1" d="M464.93,155.49v7.99c-3.57.69-1.32-3.68-3.74-5-2.25-1.23-6.66-.93-9.26-.99v31.5l5.01,1.51v1.99h-16.01v-1.99s4-1.51,4-1.51v-31.5c-2.34.17-5.04-.44-7.29.21-2.77.8-3.57,4.63-5.69,5.79v-7.99s32.99,0,32.99,0Z"/>
        <path class="cls-1" d="M374.93,157.49c-2.88.1-6.02-.52-8.76.74-3.42,1.57-1.78,5.55-5.24,5.25l1.05-7.94,31.34-.11c.58.16,3.45,8.36.12,8.07-1.3-5.98-6.03-6.44-11.51-6.01v31.5l4,1.51v1.99h-15v-1.99s4-1.51,4-1.51v-31.5Z"/>
        <path class="cls-1" d="M261.43,155.49c.49.02,1.76-1.81,2.5.99-2.68.02-4.43.76-4.97,3.54-.61,3.18-.65,24.84-.03,27.98.88,4.47,5.38.39,5,4.5h-17l4.87-3.64c.65-1.92.43-29.08-.35-30.38-1.04-1.72-4.34-1.03-4.52-2.98,4.81.12,9.68-.17,14.5,0Z"/>
        <path class="cls-1" d="M419.43,155.49c.25,0,1.33-1.9,1.51-.49v1.47c-2.26.35-3.54,1.26-3.98,3.54-.53,2.72-.29,26.9.47,28.5.97,2.03,4.26,1.01,3.51,3.97h-15.99c.34-2.2,3.18-1.39,4.09-2.64,1.46-2.01,1.5-30.21.02-31.97-1.38-1.64-4.05-.52-4.11-2.39,4.81-.12,9.68.17,14.5,0Z"/>
      </g>
      <g>
        <path class="cls-1" d="M171.1,27.97c4.08,11.13,6.33,22.92,7.56,34.71,10.15,9.02,20.12,18.39,27.37,30-5.35,10.8-12.41,20.78-20.68,29.53,1.49,11.61,2.88,23.25,2.09,34.99-9.78,3.9-19.59,8.29-30.12,9.82-11.82,20.44-32.98,31.36-54.55,38.97-20.49-8.07-43.11-18.14-53.28-38.96-10.72-1.84-20.99-5.46-30.88-9.83-.86-11.75.71-23.36,2.07-34.98-7.55-9.61-15.72-18.99-20.68-30.32,7.9-10.49,16.2-20.76,26.8-28.64,1.72-6.17,4.16-31.31,7.98-35.07,2.94-2.88,30.29-2.37,35.9-2.88C80.24,15.35,91.16,6.66,103.28,0c11.65,7.03,23.17,14.96,32.05,25.34,11.9.4,24.19-.32,35.76,2.63ZM140.26,60.37c-.59-15.13-7.7-28.88-19.03-38.75-2.65-2.31-14.08-11.04-16.7-12.05-.65-.25-.96-.39-1.71-.28-3.47.51-21.28,15.14-24.16,18.58-7.26,8.67-12.46,21.21-12.86,32.52-24.04-1.09-44.12,12.83-56.53,32.36-.24,1.63,8.67,14.26,10.44,16.43,7.65,9.44,17.7,17.31,29.7,20.32-.47,12.73.85,23.32,6.94,34.56,2.69,4.97,6.66,12.94,12.89,12.68,10.95-.45,24.5-7.2,34.04-12.3,6.98,4.77,30.22,15.04,37.73,11.88,1.48-.63,5.74-6.91,6.84-8.66,7.34-11.63,9.55-23.83,9-37.49,15.98-5.15,27.17-15.21,35.99-29.2,1.56-2.47,4.58-6.04,3.63-8.73-1.34-3.79-12.74-15-16.3-17.86-12-9.65-24.53-13.37-39.92-13.99ZM65.79,33.23c-8.43-1.11-17.15.71-25.64,1.14l-4.61,24.44c7.67-2.67,15.1-4.94,23.33-5.02,1.07-7.28,3.88-13.93,6.91-20.56ZM165.67,34.95c-1.23-1.27-24.3-2.85-25.42-1.72l7.16,20c7.98.83,15.55,2.81,23.08,5.58l-4.82-23.87ZM27.02,127.85c-.24,8.01-2.43,16.04-1.18,24.06.62,1.03,18.18,7.14,19.39,6.97,1.62-.23.66-1.43.53-2.04-1.53-7.14-3.97-13.56-3.61-21.23l-15.13-7.75ZM179.03,127.85l-15.13,7.78c-.1,7.95-1.44,15.77-4.25,23.24l20.84-6.29-1.46-24.73ZM131.72,182.92c-10.41-.91-19.65-6.03-29.03-10.12-8.05,5.4-17.26,6.93-26.36,9.4-.9.24-1.86.28-2.01,1.47,6.94,3.16,21.76,14.24,29.06,14.01s22.4-10.32,28.34-14.76Z"/>
        <path class="cls-1" d="M98.36,82.86c-5.32-4.03-13.38,2.14-16.28,6.97,10.71,6.56,37.96-4.78,45.78,5.03,3.33,4.18,2.42,14.38-3.47,15.18-3.45.47-7.96-.27-11.66-.03-10.29.65-20.7,1.96-31,2.35-3.39.13-7.38.37-10.49-.81-1.86,12.72-9.68,19.95-21.72,11.63.77-2.47,3.01-.84,4.68-1.12,5.15-.87,9.7-3.17,12.25-7.91,3.45-6.4-2.4-7.02-2.8-11.64-.15-1.69,2.19-3.78,2.16-5.68l4.62,5.83c1.02,1.02,2.11,1.64,3.56,1.87,10.94,1.73,28.01-.94,39.48-1.54,3.73-.2,7.54.21,11.27.03-.6-4-5.71-5.03-9.01-5.32-7.1-.62-34.27,5.33-36.62-2.99-.98-3.46,3.17-11.31,5.57-13.91,2.25-2.44,11.52-9.4,14.48-6.1,2.08,2.63-.11,5.5-.8,8.16Z"/>
        <path class="cls-1" d="M135.61,113.89c.55-11.88,10.17-6.45,17.03-11.3.64-2.91-8.85-11.67-12.27-12.08-.51-1.45.33-7.1,2.5-6.79.44.06,6.38,4.58,7.11,5.32,4.78,4.8,8.49,13.29,3.83,19.41-4.13,5.41-13.33.95-18.2,5.45Z"/>
        <path class="cls-1" d="M76.66,76.66c-1.66-1.69,7.76-5.31,7.73-6.59-3.74-3.57-8.83-3.44-13.16-1.16,2.5-8.93,12.91-4.86,18.59-1.17-2.53,5.16-8.64,6.18-13.16,8.92Z"/>
        <polygon class="cls-1" points="158.86 114.67 158.35 117 136.38 122.42 136.89 120.08 158.86 114.67"/>
        <path class="cls-1" d="M139.85,71.42c4.46,1.7,7.43,4.1,2.23,7.47l-4.83-3.5,2.6-3.97Z"/>
      </g>
    </g>
  </g>
</svg>