<?xml version="1.0" encoding="UTF-8"?>
<svg id="Layer_2" data-name="Layer 2" xmlns="http://www.w3.org/2000/svg" viewBox="0 0 364.27 419.95">
  <defs>
    <style>
      .cls-1 {
        fill: #519753;
      }
    </style>
  </defs>
  <g id="Layer_1-2" data-name="Layer 1">
    <g>
      <path class="cls-1" d="M271.9,36.07c5.26,14.35,8.16,29.55,9.75,44.75,13.09,11.62,25.94,23.72,35.28,38.67-6.9,13.93-16,26.79-26.66,38.07,1.92,14.97,3.71,29.97,2.69,45.11-12.61,5.03-25.26,10.69-38.83,12.66-15.24,26.35-42.52,40.43-70.33,50.25-26.42-10.4-55.58-23.39-68.69-50.23-13.82-2.37-27.06-7.04-39.82-12.68-1.11-15.15.91-30.11,2.66-45.1-9.74-12.39-20.27-24.48-26.66-39.09,10.19-13.52,20.88-26.76,34.55-36.93,2.22-7.95,5.36-40.37,10.29-45.21,3.78-3.71,39.05-3.05,46.28-3.72,12.33-12.83,26.41-24.04,42.04-32.63,15.02,9.07,29.88,19.29,41.33,32.67,15.35.51,31.19-.41,46.11,3.39ZM232.14,77.83c-.76-19.5-9.93-37.24-24.53-49.97-3.41-2.97-18.16-14.23-21.54-15.54-.84-.33-1.24-.5-2.21-.36-4.47.66-27.44,19.53-31.15,23.96-9.36,11.18-16.07,27.34-16.58,41.92-30.99-1.4-56.88,16.54-72.88,41.72-.31,2.1,11.18,18.38,13.46,21.19,9.87,12.17,22.83,22.32,38.3,26.2-.61,16.41,1.09,30.06,8.95,44.56,3.47,6.41,8.58,16.68,16.62,16.35,14.11-.57,31.59-9.28,43.89-15.86,8.99,6.15,38.96,19.39,48.64,15.31,1.91-.81,7.4-8.91,8.82-11.17,9.46-15,12.31-30.72,11.61-48.34,20.61-6.63,35.02-19.61,46.4-37.65,2.01-3.19,5.91-7.78,4.68-11.26-1.73-4.88-16.43-19.34-21.02-23.03-15.47-12.44-31.63-17.23-51.47-18.03ZM136.13,42.85c-10.87-1.43-22.11.91-33.05,1.47l-5.94,31.51c9.89-3.44,19.47-6.37,30.09-6.48,1.37-9.38,5-17.96,8.91-26.51ZM264.9,45.06c-1.59-1.64-31.33-3.67-32.78-2.21l9.23,25.79c10.28,1.07,20.05,3.63,29.76,7.2l-6.22-30.77ZM86.13,164.84c-.31,10.32-3.13,20.68-1.52,31.01.8,1.33,23.43,9.2,25,8.98,2.09-.29.85-1.84.68-2.63-1.97-9.2-5.11-17.48-4.65-27.38l-19.5-9.99ZM282.12,164.83l-19.51,10.04c-.13,10.25-1.85,20.33-5.48,29.96l26.88-8.11-1.89-31.89ZM221.13,235.85c-13.42-1.17-25.33-7.78-37.43-13.04-10.38,6.96-22.25,8.93-33.98,12.12-1.16.31-2.4.36-2.59,1.9,8.94,4.07,28.06,18.36,37.46,18.06s28.88-13.3,36.53-19.04Z"/>
      <path class="cls-1" d="M114.13,287.84v1.99c-3.64-.91-9,2.95-9,6.51v20.5h32v-20.5c0-3.32-4.9-6.19-8-6.52v-1.98s29,0,29,0c.53,2.41-.41,1.62-1.31,2.23-2.23,1.52-5.03,1.88-5.67,5.29,1.14,16.04-1.6,34.27-.09,50.04.43,4.52,2.1,6.7,7.07,6.44v2.99h-29.01c.26-4.26,8-2.96,8-8.5v-23.5c-.73-.27-1.2,1-1.5,1h-30.5v22.5c0,.24,2.07,4.08,2.25,4.25,1.87,1.73,7.42.8,6.75,4.25h-30c1-5.24,6-1.18,6.91-7.56,1.46-10.2,1.19-39.37.16-50-.54-5.55-2.03-4.67-5.75-7.21-.9-.61-1.83.18-1.31-2.23h30Z"/>
      <path class="cls-1" d="M.13,354.84v-3c5.88.72,7.56-1.97,8.05-7.46.9-10.09,1.36-38.57-.11-47.99-.76-4.85-3.17-4.76-6.51-6.47-1.05-.54-1.89.54-1.43-2.09h44.5c4.8,0,18.54,7.08,21.92,11.08,17.44,20.61,1.41,55.92-25.92,55.92H.13ZM22.13,349.84c24.8,3.94,37.76-8.68,36.04-33.54-1.43-20.74-17.92-25.4-36.04-24.46v58Z"/>
      <path class="cls-1" d="M335.63,287.84c20.96,2.97,21.96,29.48,2.51,35.49,5.96,7.22,10.81,19.26,17.6,25.4,2.7,2.44,4.54,2.44,7.1,3.88,1.12.63,1.71-.11,1.29,2.22h-19.5c-1.66-1.68-3.41-3.25-4.92-5.08-4.79-5.8-10.17-18.49-15.04-22.96-2.39-2.2-5.35-3.38-7.38-.36,2.36,7.57-3.94,26.73,7.84,25.41v2.99h-28.01v-2.99c5.34.5,6.62-2.72,7.05-7.46,1.39-15.53-1.06-33.22-.14-48.99.49-5.39-6.91-3.37-6.91-7.56,11.92,1.21,26.98-1.63,38.5,0ZM334.82,295.14c-3.83-4.21-12.55-3.27-17.7-3.3,1.23,9.58,1.64,19.43,0,28.99,8.27.35,16.9.65,19.94-8.55,1.62-4.9,1.35-13.18-2.25-17.14Z"/>
      <path class="cls-1" d="M245.13,287.84v1.99c-2.55-.15-8,3.05-8,5.51v25.5l6.53-4.97c3.08-4.11,21.38-19.1,20.38-23.43-1.01-2.62-5.68-1.33-4.92-4.6h24c.45,2.63-.37,1.55-1.43,2.09-2.14,1.09-4.63,1.64-6.89,3.09-3.28,2.1-21.73,18.99-21.72,21.32,7.98,9.62,14.38,21.1,22.52,30.51,2.6,3,6.35,7.62,10.52,6.99v2.99h-20.01l-24.64-30.92c-5.84-.98-4.87,18.67-4.3,22.36.69,4.43,3.78,5.78,7.94,5.57v2.99h-29.01c-.52-3.72,4.92-2.79,6.09-4.65,1.08-1.71,1.8-8.4,1.95-10.8.7-10.68.99-29.53-.15-39.94-.16-1.46-1.16-5.89-1.82-6.94-1.36-2.16-6.8-1.31-6.08-4.67h29Z"/>
      <path class="cls-1" d="M203.13,287.84c.46,2.63-.38,1.55-1.43,2.09-3.34,1.71-5.76,1.61-6.51,6.47-1.43,9.2-1,37.14-.11,46.99.19,2.09.71,5.11,2,6.73,1.83,2.28,6.6,1.39,6.05,4.72h-30c-.33-3.51,4.17-1.96,6.49-5.01,1.37-1.8,1.37-3.34,1.56-5.44.89-10.06,1.37-38.63-.11-47.98-.78-4.95-3.5-4.34-6.65-6.32-1.02-.64-1.76.09-1.29-2.25h30Z"/>
      <path class="cls-1" d="M66.13,385.34c-.67-2.18-5.97-1.39-4.99-4.5l12.99,1.01c-.08,1.66-4.99,1.52-4.99,3.49v33.5c-1.56.27-2.31-.15-3.55-.95-6.42-4.15-16.3-19.18-22.47-25.53-.96-.98-1.3-1.88-2.98-1.52v19.5c0,.32,1.59,4.67,1.92,5.09,1.57,1.95,4.85.28,4.08,3.41h-12.99c-.8-3.19,2.31-1.36,3.5-2.96,2.92-3.95.37-12.01.41-16.55.03-3.25,1.95-12.13.19-14.8-1.32-2.01-4.77-.55-5.11-2.67l11.99.49c6.44,7.82,12.99,15.65,19.72,23.21.6.67-.07,1.91,2.29,1.28v-21.5Z"/>
      <path class="cls-1" d="M354.63,381.84c2.12.66,2.13,6.09,0,7-2.87-7.29-9.67-3.67-15.49-6l-1.01,15,10.33.04c1.84-.41.44-5.12,3.67-4.03v11.99c-3.51.36-.88-3.22-4.94-4.55-2.57-.84-5.41-.35-8.06-.44v15c3.34,1.5,11.14,1.23,13.76-1.25,1.21-1.14,1.02-5.33,4.24-4.75l-2.5,8.99h-27.5c-.73-3.08,2.06-1.51,3.56-2.92.86-1.27.9-27.27.51-30.62-.36-3.06-3.43-.95-4.07-3.46h27.5Z"/>
      <path class="cls-1" d="M250.13,381.84c-1.53,2.37-4.18.48-4.97,4.53-.66,3.41-.46,17.17.06,20.88,1.65,11.71,16.75,11.47,19.66,1.85,1.23-4.08,2.34-22.28.01-25.01-.98-1.15-3.86-.4-3.76-2.23h11.99c.04,2.03-3.06.26-3.88,2.61-2.28,6.56,2.02,19.59-2.34,28.66-4.08,8.49-19.93,8.74-25.79,2.23-7.73-8.6,2.36-26.32-6.99-33.51h16Z"/>
      <path class="cls-1" d="M106.12,381.84v7.99c-2.51-.85-2.58-4.75-4.41-6.08-3.07-2.22-9.27-1.06-10.39,2.8-3.05,10.55,11.97,8.51,16.81,15.77,10.98,16.46-26.55,26.55-24,6.51,3.34.06,3.31,4.6,6.02,6.47,4.72,3.27,14.06,2.21,13.87-5.01-.22-8.15-18.35-7.29-18.83-19.05-.44-10.91,13.17-11.35,20.93-9.41Z"/>
      <path class="cls-1" d="M297.13,383.84c-2.89,0-6.72-.3-9.31,1.19-2.99,1.72-1.33,5.21-4.69,4.81l1-7.99,31.37-.07c1.07.3.94,2.77,1.14,3.75.05.26.99,5.24-1.02,4.31-1.91-5.97-5.74-6.51-11.51-6.01v31.5l4,1.51v1.99h-16v-1.99c1.91.6,5-1.91,5-3.51v-29.5Z"/>
      <path class="cls-1" d="M223.13,381.84v7.99c-3.57.69-1.32-3.68-3.74-5-2.25-1.23-6.66-.93-9.26-.99v31.5l5.01,1.51v1.99h-16.01v-1.99s4-1.51,4-1.51v-31.5c-2.34.17-5.04-.44-7.29.21-2.77.8-3.57,4.63-5.69,5.79v-7.99s32.99,0,32.99,0Z"/>
      <path class="cls-1" d="M133.13,383.84c-2.88.1-6.02-.52-8.76.74-3.42,1.57-1.78,5.55-5.24,5.25l1.05-7.94,31.34-.11c.58.16,3.45,8.36.12,8.07-1.3-5.98-6.03-6.44-11.51-6.01v31.5l4,1.51v1.99h-15v-1.99s4-1.51,4-1.51v-31.5Z"/>
      <path class="cls-1" d="M19.63,381.84c.49.02,1.76-1.81,2.5.99-2.68.02-4.43.76-4.97,3.54-.61,3.18-.65,24.84-.03,27.98.88,4.47,5.38.39,5,4.5H5.13l4.87-3.64c.65-1.92.43-29.08-.35-30.38-1.04-1.72-4.34-1.03-4.52-2.98,4.81.12,9.68-.17,14.5,0Z"/>
      <path class="cls-1" d="M177.63,381.84c.25,0,1.33-1.9,1.51-.49v1.47c-2.26.35-3.54,1.26-3.98,3.54-.53,2.72-.29,26.9.47,28.5.97,2.03,4.26,1.01,3.51,3.97h-15.99c.34-2.2,3.18-1.39,4.09-2.64,1.46-2.01,1.5-30.21.02-31.97-1.38-1.64-4.05-.52-4.11-2.39,4.81-.12,9.68.17,14.5,0Z"/>
      <path class="cls-1" d="M178.12,106.83c-6.86-5.2-17.25,2.76-20.99,8.99,13.81,8.46,48.94-6.16,59.02,6.49,4.29,5.38,3.11,18.55-4.48,19.57-4.45.6-10.27-.34-15.04-.04-13.26.84-26.69,2.53-39.97,3.03-4.37.17-9.52.48-13.53-1.05-2.39,16.4-12.49,25.72-28.01,14.99.99-3.18,3.88-1.08,6.04-1.44,6.64-1.12,12.51-4.09,15.8-10.2,4.44-8.26-3.09-9.05-3.61-15.01-.19-2.17,2.83-4.87,2.79-7.33l5.96,7.52c1.32,1.31,2.72,2.12,4.59,2.41,14.11,2.23,36.11-1.21,50.9-1.98,4.81-.25,9.72.27,14.54.04-.77-5.16-7.36-6.49-11.62-6.86-9.15-.8-44.19,6.87-47.21-3.86-1.26-4.46,4.09-14.58,7.18-17.93,2.9-3.14,14.85-12.12,18.67-7.86,2.68,3.38-.14,7.09-1.03,10.52Z"/>
      <path class="cls-1" d="M226.14,146.83c.71-15.32,13.12-8.32,21.95-14.57.83-3.75-11.42-15.04-15.81-15.58-.65-1.87.43-9.16,3.22-8.76.57.08,8.23,5.91,9.17,6.86,6.16,6.19,10.95,17.13,4.93,25.02-5.33,6.98-17.18,1.23-23.47,7.02Z"/>
      <path class="cls-1" d="M150.14,98.83c-2.15-2.17,10-6.84,9.97-8.5-4.82-4.6-11.39-4.43-16.97-1.5,3.22-11.52,16.65-6.27,23.97-1.51-3.26,6.65-11.14,7.97-16.97,11.51Z"/>
      <polygon class="cls-1" points="256.12 147.84 255.46 150.85 227.14 157.83 227.79 154.82 256.12 147.84"/>
      <path class="cls-1" d="M231.61,92.09c5.75,2.19,9.58,5.29,2.87,9.64l-6.22-4.52,3.35-5.12Z"/>
    </g>
  </g>
</svg>